<svg width="125.000000" height="28.000000" viewBox="0 0 125 28" fill="none" xmlns="http://www.w3.org/2000/svg" xmlns:xlink="http://www.w3.org/1999/xlink">
	<desc>
			Created with Pixso.
	</desc>
	<defs/>
	<circle cx="71.000000" cy="14.000000" r="9.000000" stroke="#FFFFFF" stroke-opacity="0.150000" stroke-width="10.000000"/>
	<g opacity="0.600000">
		<path d="M71 5C66.02 5 62 9.02 62 14C62 18.97 66.02 23 71 23C73.48 23 75.73 21.99 77.36 20.36C78.99 18.73 80 16.48 80 14C80 9.02 75.97 5 71 5ZM69.41 7.17Q70.18 7 71 7Q71.81 7 72.58 7.17Q73.16 7.31 73.72 7.54Q74.3 7.79 74.81 8.13Q75.42 8.52 75.94 9.05Q76.47 9.57 76.86 10.18Q77.2 10.69 77.45 11.27Q77.68 11.83 77.82 12.41Q78 13.18 78 14Q78 14.81 77.82 15.58Q77.68 16.16 77.45 16.72Q77.2 17.3 76.86 17.81Q76.47 18.42 75.94 18.94Q75.42 19.47 74.81 19.86Q74.3 20.2 73.72 20.45Q73.16 20.68 72.58 20.82Q71.81 21 71 21Q70.18 21 69.41 20.82Q68.83 20.68 68.27 20.45Q67.69 20.2 67.18 19.86Q66.57 19.47 66.05 18.94Q65.52 18.42 65.13 17.81Q64.79 17.3 64.54 16.72Q64.31 16.16 64.17 15.58Q64 14.81 64 14Q64 13.18 64.17 12.41Q64.31 11.83 64.54 11.27Q64.79 10.69 65.13 10.18Q65.52 9.57 66.05 9.05Q66.57 8.52 67.18 8.13Q67.69 7.79 68.27 7.54Q68.83 7.31 69.41 7.17Z" fill="#FFFFFF" fill-opacity="1.000000" fill-rule="evenodd"/>
	</g>
	<path d="M2.91 25L0 25L8.41 3L11.28 3L19.69 25L16.78 25L14.48 18.76L5.21 18.76L2.91 25ZM24.2 25L21.29 25L29.71 3L32.58 3L40.99 25L38.08 25L35.78 18.76L26.51 18.76L24.2 25ZM44.56 3L44.56 25L47.34 25L47.34 16.4L52.35 16.4Q52.65 16.4 52.94 16.39L57.77 25L61 25L55.82 15.92Q56.3 15.76 56.73 15.55C57.87 14.98 58.72 14.19 59.27 13.19C59.82 12.19 60.1 11.04 60.1 9.74C60.1 8.44 59.82 7.29 59.27 6.27C58.72 5.25 57.87 4.46 56.72 3.88C55.57 3.29 54.1 3 52.31 3L44.56 3ZM47.34 14L52.26 14C53.49 14 54.47 13.82 55.22 13.48C55.97 13.14 56.52 12.65 56.85 12.02C57.2 11.38 57.37 10.62 57.37 9.74C57.37 8.86 57.2 8.09 56.85 7.43C56.51 6.77 55.96 6.26 55.21 5.91Q54.08 5.36 52.22 5.36L47.34 5.36L47.34 14ZM9.93 6.48L13.61 16.4L6.08 16.4L9.76 6.48L9.93 6.48ZM31.23 6.48L34.91 16.4L27.38 16.4L31.05 6.48L31.23 6.48Z" fill="#FFFFFF" fill-opacity="1.000000" fill-rule="evenodd"/>
	<path d="M101.21 25L101.21 3L98.47 3L98.47 20.31L98.25 20.31L85.69 3L83 3L83 25L85.78 25L85.78 7.72L86 7.72L98.52 25L101.21 25ZM125 25L125 3L122.26 3L122.26 20.31L122.03 20.31L109.47 3L106.78 3L106.78 25L109.56 25L109.56 7.72L109.78 7.72L122.3 25L125 25Z" fill="#FFFFFF" fill-opacity="1.000000" fill-rule="evenodd"/>
</svg>
